<?xml version="1.0" encoding="UTF-8" standalone="no"?>
<svg
   version="1.0"
   width="16"
   height="16"
   viewBox="0 0 16 16"
   preserveAspectRatio="xMidYMid"
   xmlns="http://www.w3.org/2000/svg">
  <path
     fill="#40B6E0" fill-opacity=".7"
     d="m 1.8579583,1.0165208 c -0.1789156,0.035783 -0.3303057,0.1679054 -0.3991194,0.3440685 -0.02202,0.060556 -0.033031,0.5174789 -0.033031,1.6267556 l -0.00276,1.5414266 0.066061,0.1376275 c 0.066064,0.1431323 0.063313,0.1431323 2.2543401,2.3451706 0.5312418,0.5339943 0.9551339,0.9799067 0.9468761,0.9909169 -0.055051,0.060556 -0.8780624,0.8918256 -1.9625662,1.9900925 -1.0845039,1.095514 -1.2193786,1.238647 -1.2606669,1.359758 -0.038536,0.121112 -0.044041,0.3248 -0.044041,1.687312 0,1.469861 0.00276,1.557942 0.052298,1.654282 0.060556,0.115606 0.115607,0.170658 0.2504819,0.242223 0.090834,0.04955 0.1954308,0.0523 1.7065797,0.06056 1.4313249,0.0082 1.6295082,0.0027 1.7891555,-0.03579 l 0.1789159,-0.04679 1.282687,-1.290944 c 0.7046526,-0.710158 1.2936981,-1.290946 1.307461,-1.290946 0.016511,0 0.5945493,0.569778 1.2881916,1.26342 0.924856,0.93036 1.290945,1.282687 1.387285,1.32948 l 0.129368,0.06331 h 1.692818 1.692816 l 0.115606,-0.06331 c 0.06606,-0.03303 0.151391,-0.112854 0.192679,-0.176163 l 0.07707,-0.115607 v -1.624003 c 0,-1.574458 -0.0028,-1.629509 -0.05505,-1.728601 -0.03028,-0.05505 -0.765207,-0.814754 -1.632261,-1.6900638 -0.864299,-0.8725575 -1.574457,-1.6019827 -1.574457,-1.618498 0,-0.019268 0.712911,-0.7431879 1.585468,-1.612993 0.872558,-0.8698048 1.604735,-1.6184979 1.629509,-1.6652911 0.04129,-0.074319 0.0468,-0.2504819 0.05506,-1.6377659 0.0055,-0.8560424 0,-1.5964776 -0.0082,-1.6460236 -0.0082,-0.049546 -0.06056,-0.1403798 -0.115606,-0.2009359 C 14.25546,0.99174346 14.382073,1.0055061 12.488325,1.0055061 H 10.79548 l -0.1624,0.079824 C 10.498205,1.1513912 10.278001,1.3578322 9.2485482,2.3845325 8.5741743,3.0561542 8.0099027,3.6066638 7.9906352,3.6066638 7.9741152,3.6066638 7.3960833,3.045144 6.7079476,2.3570071 5.8601623,1.5092268 5.4197547,1.0908395 5.3454364,1.0550564 5.2435917,1.0082631 5.1197277,1.0055105 3.5975684,1.0000054 c -0.9000829,0 -1.6818066,0.0055 -1.7396101,0.016515 z m 2.5653746,1.101019 0.3991197,0.00276 1.1423063,1.1423072 c 0.6275815,0.6275809 1.1478135,1.1560701 1.1533181,1.1725854 0.011007,0.035783 -0.600056,0.6578588 -0.6496018,0.6578588 -0.016515,0 -0.5202309,-0.4816957 -1.1147809,-1.0734936 L 4.2719424,2.9460571 H 3.8948432 c -0.2064405,0 -0.3936138,0.00826 -0.4183867,0.016516 -0.035783,0.013763 -0.044041,0.074319 -0.044041,0.3770992 v 0.3578306 l 1.1065244,1.1175343 c 1.6074874,1.6212506 1.541426,1.5606946 1.6900635,1.6102404 0.173411,0.057803 0.3826041,0.055051 0.5202319,-0.00826 0.068813,-0.033029 0.3137906,-0.2559847 0.6606113,-0.6055582 0.3027802,-0.3027802 0.5642725,-0.553262 0.5780345,-0.553262 0.016511,0 0.1871742,0.1596478 0.379852,0.3523261 L 8.717307,5.9628494 8.2301064,6.4583076 C 7.9603566,6.7308101 7.6933597,7.0060649 7.6383081,7.0693734 7.2887355,7.460235 7.5171965,8.0492801 8.0181601,8.0437751 c 0.08533,0 0.1844205,-0.02202 0.2477294,-0.055051 0.066063,-0.03303 0.9110924,-0.8670526 2.1855225,-2.1524923 1.142308,-1.1533174 2.089183,-2.1167091 2.102945,-2.1387295 0.02753,-0.049546 0.01101,-0.668869 -0.01927,-0.7184149 -0.01652,-0.024773 -0.134875,-0.03303 -0.426645,-0.03303 H 11.703821 L 10.62207,4.0333135 c -0.594551,0.5973031 -1.0900092,1.0872562 -1.1010193,1.0872562 -0.038535,0 -0.6716212,-0.6551061 -0.6633646,-0.685384 C 8.8714501,4.3994027 9.6696889,3.5901536 10.54775,2.723101 l 0.633087,-0.6220758 1.114781,0.00276 1.114782,0.00276 0.0082,1.045968 0.0055,1.0459681 -1.651528,1.6515285 C 10.861479,6.7583508 10.08526,7.553837 10.046725,7.6198981 9.994426,7.7079791 9.972402,7.7905558 9.961395,7.9309359 9.936624,8.2805093 9.9146,8.2502313 11.100948,9.4420847 c 0.578038,0.5835403 1.337738,1.3515013 1.687313,1.7065803 l 0.635838,0.646849 -0.0082,1.032205 -0.0055,1.032205 -1.114781,0.0082 -1.114782,0.0055 -1.175338,-1.175338 C 9.3558968,12.048715 8.8274084,11.50371 8.8274084,11.48169 c 0,-0.03853 0.6000548,-0.663365 0.6413426,-0.663365 0.011007,0 0.5119743,0.495459 1.112029,1.10102 l 1.09001,1.10102 0.443159,-0.0055 0.443161,-0.0082 0.0082,-0.355079 0.0082,-0.357831 -0.751446,-0.754198 C 9.6999665,9.4090387 9.7715326,9.4695946 9.4577426,9.4695946 c -0.2614923,0 -0.3660882,0.074318 -0.963392,0.6826314 -0.29177,0.297275 -1.2386464,1.257915 -2.1056985,2.133225 l -1.5717054,1.58822 -1.1257916,-0.0055 -1.1257921,-0.0082 -0.00826,-0.999175 c -0.0055,-0.762455 0.00276,-1.012938 0.027526,-1.065236 0.046793,-0.08808 2.9066904,-2.9589894 2.9479783,-2.9589894 0.035783,0 0.6385912,0.627581 0.6385912,0.6633641 0,0.01101 -0.6165706,0.6385913 -1.3680161,1.3982943 l -1.3707688,1.381742 v 0.368841 0.371595 H 3.8700708 4.3049737 L 5.8436478,11.462442 C 6.691432,10.6064 7.4125989,9.8577072 7.4483821,9.797151 7.5364641,9.6512658 7.5419696,9.3154551 7.462145,9.1613126 7.4043415,9.0484579 6.5758247,8.2006734 4.1728507,5.7949468 L 2.5516003,4.1709404 V 3.163508 c 0,-0.5973029 0.01101,-1.0156902 0.027526,-1.0322055 0.02202,-0.02202 0.3881093,-0.024773 1.8442066,-0.013763 z"
     style="stroke-width:0.875001" />
</svg>
