<?xml version="1.0" encoding="UTF-8" standalone="no"?>
<svg
   version="1.0"
   width="128"
   height="128"
   viewBox="0 0 128 128"
   preserveAspectRatio="xMidYMid"
   id="svg6"
   xmlns="http://www.w3.org/2000/svg"
   xmlns:svg="http://www.w3.org/2000/svg">
  <g
     transform="matrix(0.01905613,0,0,-0.01905613,3.29745,130.66787)"
     fill="#000000"
     stroke="none"
     id="g6">
    <path
       d="m 938,6851 c -65,-13 -120,-61 -145,-125 -8,-22 -12,-188 -12,-591 l -1,-560 24,-50 c 24,-52 23,-52 819,-852 193,-194 347,-356 344,-360 -20,-22 -319,-324 -713,-723 -394,-398 -443,-450 -458,-494 -14,-44 -16,-118 -16,-613 0,-534 1,-566 19,-601 22,-42 42,-62 91,-88 33,-18 71,-19 620,-22 520,-3 592,-1 650,13 l 65,17 466,469 c 256,258 470,469 475,469 6,0 216,-207 468,-459 336,-338 469,-466 504,-483 l 47,-23 h 615 615 l 42,23 c 24,12 55,41 70,64 l 28,42 v 590 c 0,572 -1,592 -20,628 -11,20 -278,296 -593,614 -314,317 -572,582 -572,588 0,7 259,270 576,586 317,316 583,588 592,605 15,27 17,91 20,595 2,311 0,580 -3,598 -3,18 -22,51 -42,73 -71,79 -25,74 -713,74 h -615 l -59,-29 c -49,-24 -129,-99 -503,-472 -245,-244 -450,-444 -457,-444 -6,0 -216,204 -466,454 -308,308 -468,460 -495,473 -37,17 -82,18 -635,20 -327,0 -611,-2 -632,-6 z m 932,-400 145,-1 415,-415 c 228,-228 417,-420 419,-426 4,-13 -218,-239 -236,-239 -6,0 -189,175 -405,390 l -393,390 h -137 c -75,0 -143,-3 -152,-6 -13,-5 -16,-27 -16,-137 v -130 l 402,-406 c 584,-589 560,-567 614,-585 63,-21 139,-20 189,3 25,12 114,93 240,220 110,110 205,201 210,201 6,0 68,-58 138,-128 l 127,-128 -177,-180 c -98,-99 -195,-199 -215,-222 -127,-142 -44,-356 138,-354 31,0 67,8 90,20 24,12 331,315 794,782 415,419 759,769 764,777 10,18 4,243 -7,261 -6,9 -49,12 -155,12 h -147 l -393,-395 c -216,-217 -396,-395 -400,-395 -14,0 -244,238 -241,249 5,13 295,307 614,622 l 230,226 405,-1 405,-1 3,-380 2,-380 -600,-600 c -331,-330 -613,-619 -627,-643 -19,-32 -27,-62 -31,-113 -9,-127 -17,-116 414,-549 210,-212 486,-491 613,-620 l 231,-235 -3,-375 -2,-375 -405,-3 -405,-2 -427,427 c -236,236 -428,434 -428,442 0,14 218,241 233,241 4,0 186,-180 404,-400 l 396,-400 161,2 161,3 3,129 3,130 -273,274 c -771,774 -745,752 -859,752 -95,0 -133,-27 -350,-248 -106,-108 -450,-457 -765,-775 l -571,-577 -409,2 -409,3 -3,363 c -2,277 1,368 10,387 17,32 1056,1075 1071,1075 13,0 232,-228 232,-241 0,-4 -224,-232 -497,-508 l -498,-502 v -134 -135 h 159 158 l 559,566 c 308,311 570,583 583,605 32,53 34,175 5,231 -21,41 -322,349 -1195,1223 l -589,590 v 366 c 0,217 4,369 10,375 8,8 141,9 670,5 z"
       id="path1" />
    <path
       d="m 5131,1225 c -164,-26 -322,-132 -398,-267 -54,-96 -68,-152 -67,-273 0,-174 43,-277 163,-395 107,-105 222,-150 382,-150 196,0 355,89 469,262 48,73 71,157 73,271 l 2,92 -282,3 -283,2 V 660 c 0,-81 3,-110 13,-111 13,-2 46,-3 185,-7 l 83,-2 -15,-28 c -20,-38 -87,-98 -132,-117 -21,-9 -67,-15 -109,-15 -58,0 -81,5 -121,26 -66,35 -110,79 -140,141 -73,148 -17,329 127,408 47,26 64,30 134,30 75,0 85,-3 139,-35 32,-19 77,-56 100,-82 22,-27 46,-48 53,-48 15,0 183,150 183,163 0,5 -33,42 -73,81 -136,133 -306,189 -486,161 z"
       id="path2" />
    <path
       d="m 617,1203 c -4,-7 63,-123 138,-238 70,-108 165,-266 165,-276 0,-6 -10,-25 -22,-42 -53,-75 -287,-471 -282,-479 3,-4 66,-8 139,-8 h 135 l 34,53 c 18,28 58,93 87,142 30,50 59,90 64,90 5,0 31,-36 57,-80 27,-44 67,-108 88,-142 l 39,-63 h 141 c 105,0 140,3 140,13 0,6 -24,48 -53,92 -127,194 -249,389 -259,416 -7,17 26,78 152,284 41,66 88,146 106,177 33,57 33,58 11,63 -12,3 -78,4 -146,3 -97,-2 -126,-6 -133,-18 -4,-8 -39,-70 -76,-137 -42,-73 -73,-119 -79,-115 -6,4 -39,54 -73,112 -35,58 -71,117 -82,133 l -19,27 H 755 c -74,0 -136,-3 -138,-7 z"
       id="path3" />
    <path
       d="m 1905,1198 c -3,-7 -4,-242 -3,-523 l 3,-510 h 280 280 v 110 110 l -152,3 c -84,1 -154,4 -155,5 -1,1 -5,184 -8,407 l -5,405 -118,3 c -88,2 -119,-1 -122,-10 z"
       id="path4" />
    <path
       d="m 2889,1183 c -17,-44 -127,-348 -198,-548 -16,-44 -52,-141 -81,-215 -84,-217 -92,-242 -82,-252 5,-5 62,-7 128,-6 l 119,3 17,35 c 9,19 24,54 34,78 11,26 25,44 38,48 12,2 95,3 185,2 l 165,-3 32,-80 32,-80 h 128 129 l -3,25 c -1,14 -6,34 -11,45 -8,19 -22,56 -70,188 -35,97 -103,272 -122,314 -11,24 -19,47 -19,53 0,6 -4,18 -9,28 -5,9 -18,42 -29,72 -32,87 -85,230 -111,293 l -11,27 h -125 -125 z m 198,-493 c 24,-68 41,-130 39,-137 -6,-15 -162,-19 -184,-4 -11,7 -7,29 21,112 50,148 56,161 69,157 6,-2 31,-60 55,-128 z"
       id="path5" />
    <path
       d="m 3631,1196 c -8,-9 -10,-155 -9,-522 l 3,-509 114,-3 c 63,-1 118,1 123,6 4,4 11,132 14,283 3,151 8,275 10,277 10,8 24,-9 109,-133 49,-71 123,-179 164,-239 42,-59 86,-123 97,-140 37,-55 43,-57 165,-54 l 114,3 v 520 520 h -125 -125 l -3,-285 c -1,-156 -6,-288 -10,-292 -7,-7 -279,391 -352,515 -39,66 -40,67 -164,67 -84,0 -117,-4 -125,-14 z"
       id="path6" />
  </g>
</svg>
