<svg id="SvgjsSvg1006" width="903.0875091552734" height="656" xmlns="http://www.w3.org/2000/svg" version="1.1" xmlns:xlink="http://www.w3.org/1999/xlink" xmlns:svgjs="http://svgjs.com/svgjs"><defs id="SvgjsDefs1007"><marker id="SvgjsMarker1044" markerWidth="16" markerHeight="12" refX="16" refY="6" viewBox="0 0 16 12" orient="auto" markerUnits="userSpaceOnUse" stroke-dasharray="0,0"><path id="SvgjsPath1045" d="M0,2 L14,6 L0,11 L0,2" fill="#323232" stroke="#323232" stroke-width="2"></path></marker><marker id="SvgjsMarker1058" markerWidth="16" markerHeight="12" refX="16" refY="6" viewBox="0 0 16 12" orient="auto" markerUnits="userSpaceOnUse" stroke-dasharray="0,0"><path id="SvgjsPath1059" d="M0,2 L14,6 L0,11 L0,2" fill="#323232" stroke="#323232" stroke-width="2"></path></marker><marker id="SvgjsMarker1072" markerWidth="16" markerHeight="12" refX="16" refY="6" viewBox="0 0 16 12" orient="auto" markerUnits="userSpaceOnUse" stroke-dasharray="0,0"><path id="SvgjsPath1073" d="M0,2 L14,6 L0,11 L0,2" fill="#323232" stroke="#323232" stroke-width="2"></path></marker><marker id="SvgjsMarker1112" markerWidth="16" markerHeight="12" refX="16" refY="6" viewBox="0 0 16 12" orient="auto" markerUnits="userSpaceOnUse" stroke-dasharray="0,0"><path id="SvgjsPath1113" d="M0,2 L14,6 L0,11 L0,2" fill="#323232" stroke="#323232" stroke-width="2"></path></marker><marker id="SvgjsMarker1144" markerWidth="16" markerHeight="12" refX="16" refY="6" viewBox="0 0 16 12" orient="auto" markerUnits="userSpaceOnUse" stroke-dasharray="0,0"><path id="SvgjsPath1145" d="M0,2 L14,6 L0,11 L0,2" fill="#323232" stroke="#323232" stroke-width="2"></path></marker><marker id="SvgjsMarker1158" markerWidth="16" markerHeight="12" refX="16" refY="6" viewBox="0 0 16 12" orient="auto" markerUnits="userSpaceOnUse" stroke-dasharray="0,0"><path id="SvgjsPath1159" d="M0,2 L14,6 L0,11 L0,2" fill="#323232" stroke="#323232" stroke-width="2"></path></marker><marker id="SvgjsMarker1172" markerWidth="16" markerHeight="12" refX="16" refY="6" viewBox="0 0 16 12" orient="auto" markerUnits="userSpaceOnUse" stroke-dasharray="0,0"><path id="SvgjsPath1173" d="M0,2 L14,6 L0,11 L0,2" fill="#323232" stroke="#323232" stroke-width="2"></path></marker></defs><g id="SvgjsG1008" transform="translate(160.09999084472656,25.00000762939453)"><path id="SvgjsPath1009" d="M 0 4Q 0 0 4 0L 714 0Q 718 0 718 4L 718 602.999993801117Q 718 606.999993801117 714 606.999993801117L 4 606.999993801117Q 0 606.999993801117 0 602.999993801117Z" stroke="rgba(50,50,50,1)" stroke-width="2" fill="none"></path><g id="SvgjsG1010"><text id="SvgjsText1011" font-family="Arial" text-anchor="middle" font-size="13px" width="708px" fill="#323232" font-weight="400" align="middle" lineHeight="125%" anchor="middle" family="Arial" size="13px" weight="400" font-style="" opacity="1" y="34.73214241436549" transform="rotate(0)"></text></g></g><g id="SvgjsG1012" transform="translate(401,148.4000015258789)"><path id="SvgjsPath1013" d="M 0 4Q 0 0 4 0L 423.5 0Q 427.5 0 427.5 4L 427.5 183Q 427.5 187 423.5 187L 4 187Q 0 187 0 183Z" stroke="rgba(50,50,50,1)" stroke-width="2" fill-opacity="1" fill="#ffffed"></path><g id="SvgjsG1014"><text id="SvgjsText1015" font-family="Arial" text-anchor="middle" font-size="13px" width="418px" fill="#323232" font-weight="400" align="middle" lineHeight="125%" anchor="middle" family="Arial" size="13px" weight="400" font-style="" opacity="1" y="4.732142857142856" transform="rotate(0)"><tspan id="SvgjsTspan1016" dy="16" x="214"><tspan id="SvgjsTspan1017" style="text-decoration:;">BizObject</tspan></tspan></text></g></g><g id="SvgjsG1018" transform="translate(407.09999084472656,396.00000190734863)"><path id="SvgjsPath1019" d="M 0 4Q 0 0 4 0L 424.8000183105469 0Q 428.8000183105469 0 428.8000183105469 4L 428.8000183105469 204Q 428.8000183105469 208 424.8000183105469 208L 4 208Q 0 208 0 204Z" stroke="rgba(50,50,50,1)" stroke-width="2" fill-opacity="1" fill="#ffffed"></path><g id="SvgjsG1020"><text id="SvgjsText1021" font-family="Arial" text-anchor="middle" font-size="13px" width="419px" fill="#323232" font-weight="400" align="middle" lineHeight="125%" anchor="middle" family="Arial" size="13px" weight="400" font-style="" opacity="1" y="6.232142857142856" transform="rotate(0)"><tspan id="SvgjsTspan1022" dy="16" x="214.5"><tspan id="SvgjsTspan1023" style="text-decoration:;">ORM</tspan></tspan></text></g></g><g id="SvgjsG1024" transform="translate(661.4000091552734,171.9000015258789)"><path id="SvgjsPath1025" d="M 0 0L 117 0L 117 43L 0 43Z" stroke="rgba(50,50,50,1)" stroke-width="2" fill-opacity="1" fill="#ffffed"></path><g id="SvgjsG1026"><text id="SvgjsText1027" font-family="Arial" text-anchor="middle" font-size="13px" width="97px" fill="#323232" font-weight="400" align="middle" lineHeight="125%" anchor="middle" family="Arial" size="13px" weight="400" font-style="" opacity="1" y="11.875" transform="rotate(0)"><tspan id="SvgjsTspan1028" dy="16" x="58.5"><tspan id="SvgjsTspan1029" style="text-decoration:;">BizModel</tspan></tspan></text></g></g><g id="SvgjsG1030" transform="translate(169.09999084472656,159.9000015258789)"><path id="SvgjsPath1031" d="M 0 0L 90 0L 90 67L 0 67Z" stroke="rgba(50,50,50,1)" stroke-width="2" fill-opacity="1" fill="#ffffed"></path><g id="SvgjsG1032"><text id="SvgjsText1033" font-family="Arial" text-anchor="middle" font-size="13px" width="70px" fill="#323232" font-weight="400" align="middle" lineHeight="125%" anchor="middle" family="Arial" size="13px" weight="400" font-style="" opacity="1" y="23.875" transform="rotate(0)"><tspan id="SvgjsTspan1034" dy="16" x="45"><tspan id="SvgjsTspan1035" style="text-decoration:;">GQLEngine</tspan></tspan></text></g></g><g id="SvgjsG1036" transform="translate(29,159.9000015258789)"><path id="SvgjsPath1037" d="M 0 22.11L 83.5 22.11L 83.5 0L 117 33.5L 83.5 67L 83.5 44.89L 0 44.89L 0 22.11Z" stroke="rgba(50,50,50,1)" stroke-width="2" fill-opacity="1" fill="#ffffed"></path><g id="SvgjsG1038"><text id="SvgjsText1039" font-family="Arial" text-anchor="middle" font-size="13px" width="117px" fill="#323232" font-weight="400" align="middle" lineHeight="125%" anchor="middle" family="Arial" size="13px" weight="400" font-style="" opacity="1" y="23.875" transform="rotate(0)"><tspan id="SvgjsTspan1040" dy="16" x="58.5"><tspan id="SvgjsTspan1041" style="text-decoration:;">GraphQL</tspan></tspan></text></g></g><g id="SvgjsG1042"><path id="SvgjsPath1043" d="M259.09999084472656 199.4000015258789L329.84999084472656 199.4000015258789L329.84999084472656 199.4000015258789L400.59999084472656 199.4000015258789" stroke="#323232" stroke-width="2" fill="none" marker-end="url(#SvgjsMarker1044)"></path><rect id="SvgjsRect1046" width="26" height="16" x="316.84999084472656" y="191.4000015258789" fill="#ffffff"></rect><text id="SvgjsText1047" font-family="Arial" text-anchor="middle" font-size="13px" width="26px" fill="#323232" font-weight="400" align="top" lineHeight="16px" anchor="middle" family="Arial" size="13px" weight="400" font-style="" opacity="1" y="189.7750015258789" transform="rotate(0)"><tspan id="SvgjsTspan1048" dy="16" x="329.84999084472656"><tspan id="SvgjsTspan1049" style="text-decoration:;">分派</tspan></tspan></text></g><g id="SvgjsG1050" transform="translate(450.40000915527344,171.9000015258789)"><path id="SvgjsPath1051" d="M 0 0L 117 0L 117 43L 0 43Z" stroke="rgba(50,50,50,1)" stroke-width="2" fill-opacity="1" fill="#ffffed"></path><g id="SvgjsG1052"><text id="SvgjsText1053" font-family="Arial" text-anchor="middle" font-size="13px" width="97px" fill="#323232" font-weight="400" align="middle" lineHeight="125%" anchor="middle" family="Arial" size="13px" weight="400" font-style="" opacity="1" y="11.875" transform="rotate(0)"><tspan id="SvgjsTspan1054" dy="16" x="58.5"><tspan id="SvgjsTspan1055" style="text-decoration:;">CRUD</tspan></tspan></text></g></g><g id="SvgjsG1056"><path id="SvgjsPath1057" d="M661.4000091552734 193.4000015258789L613.9000091552734 193.4000015258789L613.9000091552734 193.4000015258789L567.4000091552734 193.4000015258789" stroke="#323232" stroke-width="2" fill="none" marker-end="url(#SvgjsMarker1058)"></path><rect id="SvgjsRect1060" width="26" height="16" x="601.4000091552734" y="185.4000015258789" fill="#ffffff"></rect><text id="SvgjsText1061" font-family="Arial" text-anchor="middle" font-size="13px" width="26px" fill="#323232" font-weight="400" align="top" lineHeight="16px" anchor="middle" family="Arial" size="13px" weight="400" font-style="" opacity="1" y="183.7750015258789" transform="rotate(0)"><tspan id="SvgjsTspan1062" dy="16" x="614.4000091552734"><tspan id="SvgjsTspan1063" style="text-decoration:;">扩展</tspan></tspan></text></g><g id="SvgjsG1064" transform="translate(450.40000915527344,256.9000015258789)"><path id="SvgjsPath1065" d="M 0 0L 117 0L 117 43L 0 43Z" stroke="rgba(50,50,50,1)" stroke-width="2" fill-opacity="1" fill="#ffffed"></path><g id="SvgjsG1066"><text id="SvgjsText1067" font-family="Arial" text-anchor="middle" font-size="13px" width="97px" fill="#323232" font-weight="400" align="middle" lineHeight="125%" anchor="middle" family="Arial" size="13px" weight="400" font-style="" opacity="1" y="11.875" transform="rotate(0)"><tspan id="SvgjsTspan1068" dy="16" x="58.5"><tspan id="SvgjsTspan1069" style="text-decoration:;">Workflow</tspan></tspan></text></g></g><g id="SvgjsG1070"><path id="SvgjsPath1071" d="M661.4000091552734 193.4000015258789L613.4000091552734 193.4000015258789L613.4000091552734 278.4000015258789L567.4000091552734 278.4000015258789" stroke="#323232" stroke-width="2" fill="none" marker-end="url(#SvgjsMarker1072)"></path></g><g id="SvgjsG1074" transform="translate(433.5,431.4000015258789)"><path id="SvgjsPath1075" d="M 0 0L 98 0L 98 38L 0 38Z" stroke="rgba(50,50,50,1)" stroke-width="2" fill-opacity="1" fill="#ffffed"></path><g id="SvgjsG1076"><text id="SvgjsText1077" font-family="Arial" text-anchor="middle" font-size="13px" width="78px" fill="#323232" font-weight="400" align="middle" lineHeight="125%" anchor="middle" family="Arial" size="13px" weight="400" font-style="" opacity="1" y="9.375" transform="rotate(0)"><tspan id="SvgjsTspan1078" dy="16" x="49"><tspan id="SvgjsTspan1079" style="text-decoration:;">延迟加载</tspan></tspan></text></g></g><g id="SvgjsG1080" transform="translate(567,431.4000015258789)"><path id="SvgjsPath1081" d="M 0 0L 98 0L 98 38L 0 38Z" stroke="rgba(50,50,50,1)" stroke-width="2" fill-opacity="1" fill="#ffffed"></path><g id="SvgjsG1082"><text id="SvgjsText1083" font-family="Arial" text-anchor="middle" font-size="13px" width="78px" fill="#323232" font-weight="400" align="middle" lineHeight="125%" anchor="middle" family="Arial" size="13px" weight="400" font-style="" opacity="1" y="9.375" transform="rotate(0)"><tspan id="SvgjsTspan1084" dy="16" x="49"><tspan id="SvgjsTspan1085" style="text-decoration:;">批量加载</tspan></tspan></text></g></g><g id="SvgjsG1086" transform="translate(568,544.4000015258789)"><path id="SvgjsPath1087" d="M 0 0L 98 0L 98 38L 0 38Z" stroke="rgba(50,50,50,1)" stroke-width="2" fill-opacity="1" fill="#ffffed"></path><g id="SvgjsG1088"><text id="SvgjsText1089" font-family="Arial" text-anchor="middle" font-size="13px" width="78px" fill="#323232" font-weight="400" align="middle" lineHeight="125%" anchor="middle" family="Arial" size="13px" weight="400" font-style="" opacity="1" y="9.375" transform="rotate(0)"><tspan id="SvgjsTspan1090" dy="16" x="49"><tspan id="SvgjsTspan1091" style="text-decoration:;">分库分表</tspan></tspan></text></g></g><g id="SvgjsG1092" transform="translate(695.5,544.4000015258789)"><path id="SvgjsPath1093" d="M 0 0L 98 0L 98 38L 0 38Z" stroke="rgba(50,50,50,1)" stroke-width="2" fill-opacity="1" fill="#ffffed"></path><g id="SvgjsG1094"><text id="SvgjsText1095" font-family="Arial" text-anchor="middle" font-size="13px" width="78px" fill="#323232" font-weight="400" align="middle" lineHeight="125%" anchor="middle" family="Arial" size="13px" weight="400" font-style="" opacity="1" y="9.375" transform="rotate(0)"><tspan id="SvgjsTspan1096" dy="16" x="49"><tspan id="SvgjsTspan1097" style="text-decoration:;">分布式事务</tspan></tspan></text></g></g><g id="SvgjsG1098" transform="translate(433.5,544.4000015258789)"><path id="SvgjsPath1099" d="M 0 0L 98 0L 98 38L 0 38Z" stroke="rgba(50,50,50,1)" stroke-width="2" fill-opacity="1" fill="#ffffed"></path><g id="SvgjsG1100"><text id="SvgjsText1101" font-family="Arial" text-anchor="middle" font-size="13px" width="78px" fill="#323232" font-weight="400" align="middle" lineHeight="125%" anchor="middle" family="Arial" size="13px" weight="400" font-style="" opacity="1" y="9.375" transform="rotate(0)"><tspan id="SvgjsTspan1102" dy="16" x="49"><tspan id="SvgjsTspan1103" style="text-decoration:;">异构数据源</tspan></tspan></text></g></g><g id="SvgjsG1104" transform="translate(433.5,489.4000015258789)"><path id="SvgjsPath1105" d="M 0 0L 98 0L 98 38L 0 38Z" stroke="rgba(50,50,50,1)" stroke-width="2" fill-opacity="1" fill="#ffffed"></path><g id="SvgjsG1106"><text id="SvgjsText1107" font-family="Arial" text-anchor="middle" font-size="13px" width="78px" fill="#323232" font-weight="400" align="middle" lineHeight="125%" anchor="middle" family="Arial" size="13px" weight="400" font-style="" opacity="1" y="9.375" transform="rotate(0)"><tspan id="SvgjsTspan1108" dy="16" x="49"><tspan id="SvgjsTspan1109" style="text-decoration:;">扩展字段</tspan></tspan></text></g></g><g id="SvgjsG1110"><path id="SvgjsPath1111" d="M621.9000091552734 335.4000015258789L621.9000091552734 365.70000171661377L621.5 365.70000171661377L621.5 396.00000190734863" stroke="#323232" stroke-width="2" fill="none" marker-end="url(#SvgjsMarker1112)"></path><rect id="SvgjsRect1114" width="26" height="16" x="608.7000045776367" y="357.70000171661377" fill="#ffffff"></rect><text id="SvgjsText1115" font-family="Arial" text-anchor="middle" font-size="13px" width="26px" fill="#323232" font-weight="400" align="top" lineHeight="16px" anchor="middle" family="Arial" size="13px" weight="400" font-style="" opacity="1" y="356.07500171661377" transform="rotate(0)"><tspan id="SvgjsTspan1116" dy="16" x="621.7000045776367"><tspan id="SvgjsTspan1117" style="text-decoration:;">使用</tspan></tspan></text></g><g id="SvgjsG1118" transform="translate(695.5,431.4000015258789)"><path id="SvgjsPath1119" d="M 0 0L 98 0L 98 38L 0 38Z" stroke="rgba(50,50,50,1)" stroke-width="2" fill-opacity="1" fill="#ffffed"></path><g id="SvgjsG1120"><text id="SvgjsText1121" font-family="Arial" text-anchor="middle" font-size="13px" width="78px" fill="#323232" font-weight="400" align="middle" lineHeight="125%" anchor="middle" family="Arial" size="13px" weight="400" font-style="" opacity="1" y="9.375" transform="rotate(0)"><tspan id="SvgjsTspan1122" dy="16" x="49"><tspan id="SvgjsTspan1123" style="text-decoration:;">数据缓存</tspan></tspan></text></g></g><g id="SvgjsG1124" transform="translate(695.5,486.4000015258789)"><path id="SvgjsPath1125" d="M 0 0L 98 0L 98 38L 0 38Z" stroke="rgba(50,50,50,1)" stroke-width="2" fill-opacity="1" fill="#ffffed"></path><g id="SvgjsG1126"><text id="SvgjsText1127" font-family="Arial" text-anchor="middle" font-size="13px" width="78px" fill="#323232" font-weight="400" align="middle" lineHeight="125%" anchor="middle" family="Arial" size="13px" weight="400" font-style="" opacity="1" y="9.375" transform="rotate(0)"><tspan id="SvgjsTspan1128" dy="16" x="49"><tspan id="SvgjsTspan1129" style="text-decoration:;">修改跟踪</tspan></tspan></text></g></g><g id="SvgjsG1130" transform="translate(567,486.4000015258789)"><path id="SvgjsPath1131" d="M 0 0L 98 0L 98 38L 0 38Z" stroke="rgba(50,50,50,1)" stroke-width="2" fill-opacity="1" fill="#ffffed"></path><g id="SvgjsG1132"><text id="SvgjsText1133" font-family="Arial" text-anchor="middle" font-size="13px" width="78px" fill="#323232" font-weight="400" align="middle" lineHeight="125%" anchor="middle" family="Arial" size="13px" weight="400" font-style="" opacity="1" y="9.375" transform="rotate(0)"><tspan id="SvgjsTspan1134" dy="16" x="49"><tspan id="SvgjsTspan1135" style="text-decoration:;">历史版本</tspan></tspan></text></g></g><g id="SvgjsG1136" transform="translate(661.4000091552734,256.9000015258789)"><path id="SvgjsPath1137" d="M 0 0L 117 0L 117 43L 0 43Z" stroke="rgba(50,50,50,1)" stroke-width="2" fill-opacity="1" fill="#ffffed"></path><g id="SvgjsG1138"><text id="SvgjsText1139" font-family="Arial" text-anchor="middle" font-size="13px" width="97px" fill="#323232" font-weight="400" align="middle" lineHeight="125%" anchor="middle" family="Arial" size="13px" weight="400" font-style="" opacity="1" y="11.875" transform="rotate(0)"><tspan id="SvgjsTspan1140" dy="16" x="58.5"><tspan id="SvgjsTspan1141" style="text-decoration:;">StateMachine</tspan></tspan></text></g></g><g id="SvgjsG1142"><path id="SvgjsPath1143" d="M719.9000091552734 214.9000015258789L719.9000091552734 237.9000015258789L719.9000091552734 237.9000015258789L719.9000091552734 256.9000015258789" stroke="#323232" stroke-width="2" fill="none" marker-end="url(#SvgjsMarker1144)"></path><rect id="SvgjsRect1146" width="26" height="16" x="706.9000091552734" y="227.9000015258789" fill="#ffffff"></rect><text id="SvgjsText1147" font-family="Arial" text-anchor="middle" font-size="13px" width="26px" fill="#323232" font-weight="400" align="top" lineHeight="16px" anchor="middle" family="Arial" size="13px" weight="400" font-style="" opacity="1" y="226.2750015258789" transform="rotate(0)"><tspan id="SvgjsTspan1148" dy="16" x="719.9000091552734"><tspan id="SvgjsTspan1149" style="text-decoration:;">驱动</tspan></tspan></text></g><g id="SvgjsG1150" transform="translate(298.5,256.9000015258789)"><path id="SvgjsPath1151" d="M 0 33.5L 40 0L 80 33.5L 40 67Z" stroke="rgba(50,50,50,1)" stroke-width="2" fill-opacity="1" fill="#ffffed"></path><g id="SvgjsG1152"><text id="SvgjsText1153" font-family="Arial" text-anchor="middle" font-size="13px" width="60px" fill="#323232" font-weight="400" align="middle" lineHeight="125%" anchor="middle" family="Arial" size="13px" weight="400" font-style="" opacity="1" y="24.21" transform="rotate(0)"><tspan id="SvgjsTspan1154" dy="16" x="40"><tspan id="SvgjsTspan1155" style="text-decoration:;">操作权限</tspan></tspan></text></g></g><g id="SvgjsG1156"><path id="SvgjsPath1157" d="M338.09999084472656 256.9000015258789L338.09999084472656 237.95000171661377L338.09999084472656 237.95000171661377L338.09999084472656 219.00000190734863" stroke="#323232" stroke-width="2" fill="none" marker-end="url(#SvgjsMarker1158)"></path><rect id="SvgjsRect1160" width="26" height="16" x="325.09999084472656" y="229.95000171661377" fill="#ffffff"></rect><text id="SvgjsText1161" font-family="Arial" text-anchor="middle" font-size="13px" width="26px" fill="#323232" font-weight="400" align="top" lineHeight="16px" anchor="middle" family="Arial" size="13px" weight="400" font-style="" opacity="1" y="228.32500171661377" transform="rotate(0)"><tspan id="SvgjsTspan1162" dy="16" x="338.09999084472656"><tspan id="SvgjsTspan1163" style="text-decoration:;">限制</tspan></tspan></text></g><g id="SvgjsG1164" transform="translate(276,44.400001525878906)"><path id="SvgjsPath1165" d="M 0 40L 62.5 0L 125 40L 62.5 80Z" stroke="rgba(50,50,50,1)" stroke-width="2" fill-opacity="1" fill="#ffffed"></path><g id="SvgjsG1166"><text id="SvgjsText1167" font-family="Arial" text-anchor="middle" font-size="13px" width="105px" fill="#323232" font-weight="400" align="middle" lineHeight="125%" anchor="middle" family="Arial" size="13px" weight="400" font-style="" opacity="1" y="30.775" transform="rotate(0)"><tspan id="SvgjsTspan1168" dy="16" x="62.5"><tspan id="SvgjsTspan1169" style="text-decoration:;">数据权限</tspan></tspan></text></g></g><g id="SvgjsG1170"><path id="SvgjsPath1171" d="M337.09999084472656 124.4000015258789L337.09999084472656 158.20000076293945L337.09999084472656 158.20000076293945L337.09999084472656 192" stroke="#323232" stroke-width="2" fill="none" marker-end="url(#SvgjsMarker1172)"></path><rect id="SvgjsRect1174" width="26" height="16" x="324.09999084472656" y="150.20000076293945" fill="#ffffff"></rect><text id="SvgjsText1175" font-family="Arial" text-anchor="middle" font-size="13px" width="26px" fill="#323232" font-weight="400" align="top" lineHeight="16px" anchor="middle" family="Arial" size="13px" weight="400" font-style="" opacity="1" y="148.57500076293945" transform="rotate(0)"><tspan id="SvgjsTspan1176" dy="16" x="337.09999084472656"><tspan id="SvgjsTspan1177" style="text-decoration:;">过滤</tspan></tspan></text></g><g id="SvgjsG1178" transform="translate(25,268.4000015258789)"><path id="SvgjsPath1179" d="M 0 22.11L 91.5 22.11L 91.5 0L 125 33.5L 91.5 67L 91.5 44.89L 0 44.89L 0 22.11Z" stroke="rgba(50,50,50,1)" stroke-width="2" fill-opacity="1" fill="#ffffed"></path><g id="SvgjsG1180"><text id="SvgjsText1181" font-family="Arial" text-anchor="middle" font-size="13px" width="125px" fill="#323232" font-weight="400" align="middle" lineHeight="125%" anchor="middle" family="Arial" size="13px" weight="400" font-style="" opacity="1" y="23.875" transform="rotate(0)"><tspan id="SvgjsTspan1182" dy="16" x="62.5"><tspan id="SvgjsTspan1183" style="text-decoration:;">MessageQueue</tspan></tspan></text></g></g><g id="SvgjsG1184" transform="translate(25,360.4000015258789)"><path id="SvgjsPath1185" d="M 0 22.11L 91.5 22.11L 91.5 0L 125 33.5L 91.5 67L 91.5 44.89L 0 44.89L 0 22.11Z" stroke="rgba(50,50,50,1)" stroke-width="2" fill-opacity="1" fill="#ffffed"></path><g id="SvgjsG1186"><text id="SvgjsText1187" font-family="Arial" text-anchor="middle" font-size="13px" width="125px" fill="#323232" font-weight="400" align="middle" lineHeight="125%" anchor="middle" family="Arial" size="13px" weight="400" font-style="" opacity="1" y="23.875" transform="rotate(0)"><tspan id="SvgjsTspan1188" dy="16" x="62.5"><tspan id="SvgjsTspan1189" style="text-decoration:;">RPC</tspan></tspan></text></g></g><g id="SvgjsG1190" transform="translate(25,454.8000030517578)"><path id="SvgjsPath1191" d="M 0 22.11L 91.5 22.11L 91.5 0L 125 33.5L 91.5 67L 91.5 44.89L 0 44.89L 0 22.11Z" stroke="rgba(50,50,50,1)" stroke-width="2" fill-opacity="1" fill="#ffffed"></path><g id="SvgjsG1192"><text id="SvgjsText1193" font-family="Arial" text-anchor="middle" font-size="13px" width="125px" fill="#323232" font-weight="400" align="middle" lineHeight="125%" anchor="middle" family="Arial" size="13px" weight="400" font-style="" opacity="1" y="23.875" transform="rotate(0)"><tspan id="SvgjsTspan1194" dy="16" x="62.5"><tspan id="SvgjsTspan1195" style="text-decoration:;">BatchFile</tspan></tspan></text></g></g><g id="SvgjsG1196" transform="translate(762.5,187)"><path id="SvgjsPath1197" d="M 0 21.5C 0 -7.166666666666667 43 -7.166666666666667 43 21.5C 43 50.166666666666664 0 50.166666666666664 0 21.5Z" stroke="rgba(50,50,50,1)" stroke-width="2" fill-opacity="1" fill="#ffffed"></path><g id="SvgjsG1198"><text id="SvgjsText1199" font-family="Arial" text-anchor="middle" font-size="13px" width="23px" fill="#323232" font-weight="400" align="middle" lineHeight="125%" anchor="middle" family="Arial" size="13px" weight="400" font-style="" opacity="1" y="11.875" transform="rotate(0)"><tspan id="SvgjsTspan1200" dy="16" x="21.5"><tspan id="SvgjsTspan1201" style="text-decoration:;">Biz</tspan></tspan></text></g></g></svg>