<svg id="SvgjsSvg1006" width="637.5124816894531" height="476.4125061035156" xmlns="http://www.w3.org/2000/svg" version="1.1" xmlns:xlink="http://www.w3.org/1999/xlink" xmlns:svgjs="http://svgjs.com/svgjs"><defs id="SvgjsDefs1007"><marker id="SvgjsMarker1047" markerWidth="16" markerHeight="12" refX="16" refY="6" viewBox="0 0 16 12" orient="auto" markerUnits="userSpaceOnUse" stroke-dasharray="0,0"><path id="SvgjsPath1048" d="M0,2 L14,6 L0,11 L0,2" fill="#323232" stroke="#323232" stroke-width="2"></path></marker><marker id="SvgjsMarker1057" markerWidth="16" markerHeight="12" refX="16" refY="6" viewBox="0 0 16 12" orient="auto" markerUnits="userSpaceOnUse" stroke-dasharray="0,0"><path id="SvgjsPath1058" d="M0,2 L14,6 L0,11 L0,2" fill="#323232" stroke="#323232" stroke-width="2"></path></marker><marker id="SvgjsMarker1073" markerWidth="16" markerHeight="12" refX="16" refY="6" viewBox="0 0 16 12" orient="auto" markerUnits="userSpaceOnUse" stroke-dasharray="0,0"><path id="SvgjsPath1074" d="M0,2 L14,6 L0,11 L0,2" fill="#323232" stroke="#323232" stroke-width="2"></path></marker><marker id="SvgjsMarker1081" markerWidth="16" markerHeight="12" refX="16" refY="6" viewBox="0 0 16 12" orient="auto" markerUnits="userSpaceOnUse" stroke-dasharray="0,0"><path id="SvgjsPath1082" d="M0,2 L14,6 L0,11 L0,2" fill="#323232" stroke="#323232" stroke-width="2"></path></marker></defs><g id="SvgjsG1008" transform="translate(25.012481689453125,25.012493133544922)"><path id="SvgjsPath1009" d="M 0 4Q 0 0 4 0L 433 0Q 437 0 437 4L 437 144.00001525878906Q 437 148.00001525878906 433 148.00001525878906L 4 148.00001525878906Q 0 148.00001525878906 0 144.00001525878906Z" stroke="rgba(50,50,50,1)" stroke-width="2" fill-opacity="1" fill="#ffffed"></path><g id="SvgjsG1010"><text id="SvgjsText1011" font-family="Arial" text-anchor="middle" font-size="13px" width="427px" fill="#323232" font-weight="400" align="middle" lineHeight="125%" anchor="middle" family="Arial" size="13px" weight="400" font-style="" opacity="1" y="1.9464296613420746" transform="rotate(0)"><tspan id="SvgjsTspan1012" dy="16" x="218.5"><tspan id="SvgjsTspan1013" style="text-decoration:;">ComponentManager</tspan></tspan></text></g></g><g id="SvgjsG1014" transform="translate(25.012481689453125,320.4125175476074)"><path id="SvgjsPath1015" d="M 0 4Q 0 0 4 0L 433 0Q 437 0 437 4L 437 127.9999828338623Q 437 131.9999828338623 433 131.9999828338623L 4 131.9999828338623Q 0 131.9999828338623 0 127.9999828338623Z" stroke="rgba(50,50,50,1)" stroke-width="2" fill-opacity="1" fill="#ffffed"></path><g id="SvgjsG1016"><text id="SvgjsText1017" font-family="Arial" text-anchor="middle" font-size="13px" width="427px" fill="#323232" font-weight="400" align="middle" lineHeight="125%" anchor="middle" family="Arial" size="13px" weight="400" font-style="" opacity="1" y="0.8035702024187348" transform="rotate(0)"><tspan id="SvgjsTspan1018" dy="16" x="218.5"><tspan id="SvgjsTspan1019" style="text-decoration:;">VirtualFileSystem</tspan></tspan></text></g></g><g id="SvgjsG1020" transform="translate(59.91249084472656,368.01250076293945)"><path id="SvgjsPath1021" d="M 0 61.666666666666664L 0 0L 100 0L 100 61.666666666666664Q 75 45 50 61.666666666666664Q 25 78.33333333333333 0 61.666666666666664Z" stroke="rgba(50,50,50,1)" stroke-width="2" fill-opacity="1" fill="#ffffed"></path><g id="SvgjsG1022"><text id="SvgjsText1023" font-family="Arial" text-anchor="middle" font-size="13px" width="100px" fill="#323232" font-weight="400" align="middle" lineHeight="125%" anchor="middle" family="Arial" size="13px" weight="400" font-style="" opacity="1" y="21.875" transform="rotate(0)"><tspan id="SvgjsTspan1024" dy="16" x="50"><tspan id="SvgjsTspan1025" style="text-decoration:;">XML</tspan></tspan></text></g></g><g id="SvgjsG1026" transform="translate(51.91249084472656,77.51250076293945)"><path id="SvgjsPath1027" d="M 0 0L 116 0L 116 43L 0 43Z" stroke="rgba(50,50,50,1)" stroke-width="2" fill-opacity="1" fill="#ffffed"></path><g id="SvgjsG1028"><text id="SvgjsText1029" font-family="Arial" text-anchor="middle" font-size="13px" width="96px" fill="#323232" font-weight="400" align="middle" lineHeight="125%" anchor="middle" family="Arial" size="13px" weight="400" font-style="" opacity="1" y="11.875" transform="rotate(0)"><tspan id="SvgjsTspan1030" dy="16" x="58"><tspan id="SvgjsTspan1031" style="text-decoration:;">X</tspan><tspan id="SvgjsTspan1032" style="text-decoration:;font-size: inherit;">Model</tspan></tspan></text></g></g><g id="SvgjsG1033" transform="translate(185.36248016357422,368.01250076293945)"><path id="SvgjsPath1034" d="M 0 61.666666666666664L 0 0L 100 0L 100 61.666666666666664Q 75 45 50 61.666666666666664Q 25 78.33333333333333 0 61.666666666666664Z" stroke="rgba(50,50,50,1)" stroke-width="2" fill-opacity="1" fill="#ffffed"></path><g id="SvgjsG1035"><text id="SvgjsText1036" font-family="Arial" text-anchor="middle" font-size="13px" width="100px" fill="#323232" font-weight="400" align="middle" lineHeight="125%" anchor="middle" family="Arial" size="13px" weight="400" font-style="" opacity="1" y="21.875" transform="rotate(0)"><tspan id="SvgjsTspan1037" dy="16" x="50"><tspan id="SvgjsTspan1038" style="text-decoration:;">JSON</tspan></tspan></text></g></g><g id="SvgjsG1039" transform="translate(307.91249084472656,77.51250076293945)"><path id="SvgjsPath1040" d="M 0 0L 116 0L 116 43L 0 43Z" stroke="rgba(50,50,50,1)" stroke-width="2" fill-opacity="1" fill="#ffffed"></path><g id="SvgjsG1041"><text id="SvgjsText1042" font-family="Arial" text-anchor="middle" font-size="13px" width="96px" fill="#323232" font-weight="400" align="middle" lineHeight="125%" anchor="middle" family="Arial" size="13px" weight="400" font-style="" opacity="1" y="11.875" transform="rotate(0)"><tspan id="SvgjsTspan1043" dy="16" x="58"><tspan id="SvgjsTspan1044" style="text-decoration:;">Component</tspan></tspan></text></g></g><g id="SvgjsG1045"><path id="SvgjsPath1046" d="M167.91249084472656 99.01250076293945L236.88748168945312 99.01250076293945L236.88748168945312 99.01250076293945L307.91249084472656 99.01250076293945" stroke="#323232" stroke-width="2" fill="none" marker-end="url(#SvgjsMarker1047)"></path></g><g id="SvgjsG1049" transform="translate(200.26248168945312,81.11249923706055)"><path id="SvgjsPath1050" d="M 7.518000640869141 0L 68.98199935913085 0L 76.5 17.900001525878906L 68.98199935913085 35.80000305175781L 7.518000640869141 35.80000305175781L 0 17.900001525878906L 7.518000640869141 0Z" stroke="rgba(50,50,50,1)" stroke-width="2" fill-opacity="1" fill="#ffffed"></path><g id="SvgjsG1051"><text id="SvgjsText1052" font-family="Arial" text-anchor="middle" font-size="13px" width="57px" fill="#323232" font-weight="400" align="middle" lineHeight="125%" anchor="middle" family="Arial" size="13px" weight="400" font-style="" opacity="1" y="8.275001525878906" transform="rotate(0)"><tspan id="SvgjsTspan1053" dy="16" x="38.5"><tspan id="SvgjsTspan1054" style="text-decoration:;">Renderer</tspan></tspan></text></g></g><g id="SvgjsG1055"><path id="SvgjsPath1056" d="M243.51248168945312 173.01250839233398L243.51248168945312 246.7125129699707L243.51248168945312 246.7125129699707L243.51248168945312 320.4125175476074" stroke="#323232" stroke-width="2" fill="none" marker-end="url(#SvgjsMarker1057)"></path></g><g id="SvgjsG1059" transform="translate(178.01248168945312,201.21249389648438)"><path id="SvgjsPath1060" d="M 15.719999999999999 56C -13.100000000000001 40 5.24 28 11.79 24C 9.170000000000002 4 41.92 0 55.019999999999996 8C 65.5 -4 98.25 0 98.25 12C 124.44999999999999 8 134.93 24 124.44999999999999 44C 133.62 60 124.44999999999999 80 94.32 72C 87.77000000000001 82.4 61.56999999999999 82.4 55.019999999999996 72C 41.92 80 15.719999999999999 76 15.719999999999999 56Z" stroke="rgba(50,50,50,1)" stroke-width="2" fill-opacity="1" fill="#ffffed"></path><g id="SvgjsG1061"><text id="SvgjsText1062" font-family="Arial" text-anchor="middle" font-size="13px" width="111px" fill="#323232" font-weight="400" align="middle" lineHeight="125%" anchor="middle" family="Arial" size="13px" weight="400" font-style="" opacity="1" y="30.375" transform="rotate(0)"><tspan id="SvgjsTspan1063" dy="16" x="65.5"><tspan id="SvgjsTspan1064" style="text-decoration:;">LoadingCache</tspan></tspan></text></g></g><g id="SvgjsG1065" transform="translate(492.5124816894531,196.41249465942383)"><path id="SvgjsPath1066" d="M 0 40L 60 0L 120 40L 60 80Z" stroke="rgba(50,50,50,1)" stroke-width="2" fill-opacity="1" fill="#ffffed"></path><g id="SvgjsG1067"><text id="SvgjsText1068" font-family="Arial" text-anchor="middle" font-size="13px" width="100px" fill="#323232" font-weight="400" align="middle" lineHeight="125%" anchor="middle" family="Arial" size="13px" weight="400" font-style="" opacity="1" y="30.775" transform="rotate(0)"><tspan id="SvgjsTspan1069" dy="16" x="60"><tspan id="SvgjsTspan1070" style="text-decoration:;">FileWatch</tspan></tspan></text></g></g><g id="SvgjsG1071"><path id="SvgjsPath1072" d="M552.5124816894531 196.41249465942383L552.5124816894531 99.01250076293945L462.0124816894531 99.01250076293945" stroke="#323232" stroke-width="2" fill="none" marker-end="url(#SvgjsMarker1073)"></path><rect id="SvgjsRect1075" width="26" height="16" x="539.5124816894531" y="94.46249771118164" fill="#ffffff"></rect><text id="SvgjsText1076" font-family="Arial" text-anchor="middle" font-size="13px" width="26px" fill="#323232" font-weight="400" align="top" lineHeight="16px" anchor="middle" family="Arial" size="13px" weight="400" font-style="" opacity="1" y="92.83749771118164" transform="rotate(0)"><tspan id="SvgjsTspan1077" dy="16" x="552.5124816894531"><tspan id="SvgjsTspan1078" style="text-decoration:;">触发</tspan></tspan></text></g><g id="SvgjsG1079"><path id="SvgjsPath1080" d="M552.5124816894531 276.4124946594238L552.5124816894531 386.4125089645386L462.0124816894531 386.4125089645386" stroke="#323232" stroke-width="2" fill="none" marker-end="url(#SvgjsMarker1081)"></path><rect id="SvgjsRect1083" width="26" height="16" x="539.5124816894531" y="368.6625018119812" fill="#ffffff"></rect><text id="SvgjsText1084" font-family="Arial" text-anchor="middle" font-size="13px" width="26px" fill="#323232" font-weight="400" align="top" lineHeight="16px" anchor="middle" family="Arial" size="13px" weight="400" font-style="" opacity="1" y="367.0375018119812" transform="rotate(0)"><tspan id="SvgjsTspan1085" dy="16" x="552.5124816894531"><tspan id="SvgjsTspan1086" style="text-decoration:;">监视</tspan></tspan></text></g><g id="SvgjsG1087" transform="translate(315.91249084472656,368.01250076293945)"><path id="SvgjsPath1088" d="M 0 61.666666666666664L 0 0L 100 0L 100 61.666666666666664Q 75 45 50 61.666666666666664Q 25 78.33333333333333 0 61.666666666666664Z" stroke="rgba(50,50,50,1)" stroke-width="2" fill-opacity="1" fill="#ffffed"></path><g id="SvgjsG1089"><text id="SvgjsText1090" font-family="Arial" text-anchor="middle" font-size="13px" width="100px" fill="#323232" font-weight="400" align="middle" lineHeight="125%" anchor="middle" family="Arial" size="13px" weight="400" font-style="" opacity="1" y="21.875" transform="rotate(0)"><tspan id="SvgjsTspan1091" dy="16" x="50"><tspan id="SvgjsTspan1092" style="text-decoration:;">Excel</tspan></tspan></text></g></g></svg>