<svg id="SvgjsSvg1006" width="894.4125061035156" height="777.400032043457" xmlns="http://www.w3.org/2000/svg" version="1.1" xmlns:xlink="http://www.w3.org/1999/xlink" xmlns:svgjs="http://svgjs.com/svgjs"><defs id="SvgjsDefs1007"><marker id="SvgjsMarker1062" markerWidth="16" markerHeight="12" refX="16" refY="6" viewBox="0 0 16 12" orient="auto" markerUnits="userSpaceOnUse" stroke-dasharray="0,0"><path id="SvgjsPath1063" d="M0,2 L14,6 L0,11 L0,2" fill="#323232" stroke="#323232" stroke-width="2"></path></marker><marker id="SvgjsMarker1082" markerWidth="16" markerHeight="12" refX="16" refY="6" viewBox="0 0 16 12" orient="auto" markerUnits="userSpaceOnUse" stroke-dasharray="0,0"><path id="SvgjsPath1083" d="M0,2 L14,6 L0,11 L0,2" fill="#323232" stroke="#323232" stroke-width="2"></path></marker><marker id="SvgjsMarker1096" markerWidth="16" markerHeight="12" refX="16" refY="6" viewBox="0 0 16 12" orient="auto" markerUnits="userSpaceOnUse" stroke-dasharray="0,0"><path id="SvgjsPath1097" d="M0,2 L14,6 L0,11 L0,2" fill="#323232" stroke="#323232" stroke-width="2"></path></marker><marker id="SvgjsMarker1116" markerWidth="16" markerHeight="12" refX="16" refY="6" viewBox="0 0 16 12" orient="auto" markerUnits="userSpaceOnUse" stroke-dasharray="0,0"><path id="SvgjsPath1117" d="M0,2 L14,6 L0,11 L0,2" fill="#323232" stroke="#323232" stroke-width="2"></path></marker><marker id="SvgjsMarker1130" markerWidth="16" markerHeight="12" refX="16" refY="6" viewBox="0 0 16 12" orient="auto" markerUnits="userSpaceOnUse" stroke-dasharray="0,0"><path id="SvgjsPath1131" d="M0,2 L14,6 L0,11 L0,2" fill="#323232" stroke="#323232" stroke-width="2"></path></marker><marker id="SvgjsMarker1144" markerWidth="16" markerHeight="12" refX="16" refY="6" viewBox="0 0 16 12" orient="auto" markerUnits="userSpaceOnUse" stroke-dasharray="0,0"><path id="SvgjsPath1145" d="M0,2 L14,6 L0,11 L0,2" fill="#323232" stroke="#323232" stroke-width="2"></path></marker><marker id="SvgjsMarker1158" markerWidth="16" markerHeight="12" refX="16" refY="6" viewBox="0 0 16 12" orient="auto" markerUnits="userSpaceOnUse" stroke-dasharray="0,0"><path id="SvgjsPath1159" d="M0,2 L14,6 L0,11 L0,2" fill="#323232" stroke="#323232" stroke-width="2"></path></marker><marker id="SvgjsMarker1166" markerWidth="16" markerHeight="12" refX="16" refY="6" viewBox="0 0 16 12" orient="auto" markerUnits="userSpaceOnUse" stroke-dasharray="0,0"><path id="SvgjsPath1167" d="M0,2 L14,6 L0,11 L0,2" fill="#323232" stroke="#323232" stroke-width="2"></path></marker></defs><g id="SvgjsG1008" transform="translate(25.012481689453125,161.99999618530273)"><path id="SvgjsPath1009" d="M 0 4Q 0 0 4 0L 678 0Q 682 0 682 4L 682 275.9999885559082Q 682 279.9999885559082 678 279.9999885559082L 4 279.9999885559082Q 0 279.9999885559082 0 275.9999885559082Z" stroke="rgba(50,50,50,1)" stroke-width="2" fill-opacity="1" fill="#ffffed"></path><g id="SvgjsG1010"><text id="SvgjsText1011" font-family="Arial" text-anchor="middle" font-size="13px" width="672px" fill="#323232" font-weight="400" align="middle" lineHeight="125%" anchor="middle" family="Arial" size="13px" weight="400" font-style="" opacity="1" y="11.37499918256487" transform="rotate(0)"><tspan id="SvgjsTspan1012" dy="16" x="341"><tspan id="SvgjsTspan1013" style="text-decoration:;">基础模型</tspan></tspan></text></g></g><g id="SvgjsG1014" transform="translate(51.012481689453125,508.8999938964844)"><path id="SvgjsPath1015" d="M 0 4Q 0 0 4 0L 438 0Q 442 0 442 4L 442 109Q 442 113 438 113L 4 113Q 0 113 0 109Z" stroke="rgba(50,50,50,1)" stroke-width="2" fill-opacity="1" fill="#ffffed"></path><g id="SvgjsG1016"><text id="SvgjsText1017" font-family="Arial" text-anchor="middle" font-size="13px" width="432px" fill="#323232" font-weight="400" align="middle" lineHeight="125%" anchor="middle" family="Arial" size="13px" weight="400" font-style="" opacity="1" y="-0.5535714285714288" transform="rotate(0)"></text></g></g><g id="SvgjsG1018" transform="translate(317.0124816894531,24.999996185302734)"><path id="SvgjsPath1019" d="M 0 61.666666666666664L 0 0L 100 0L 100 61.666666666666664Q 75 45 50 61.666666666666664Q 25 78.33333333333333 0 61.666666666666664Z" stroke="rgba(50,50,50,1)" stroke-width="2" fill-opacity="1" fill="#ffffed"></path><g id="SvgjsG1020"><text id="SvgjsText1021" font-family="Arial" text-anchor="middle" font-size="13px" width="100px" fill="#323232" font-weight="400" align="middle" lineHeight="125%" anchor="middle" family="Arial" size="13px" weight="400" font-style="" opacity="1" y="21.875" transform="rotate(0)"><tspan id="SvgjsTspan1022" dy="16" x="50"><tspan id="SvgjsTspan1023" style="text-decoration:;">数据模型</tspan></tspan></text></g></g><g id="SvgjsG1024" transform="translate(68.41249084472656,322.3999938964844)"><path id="SvgjsPath1025" d="M 0 4Q 0 0 4 0L 96 0Q 100 0 100 4L 100 66Q 100 70 96 70L 4 70Q 0 70 0 66Z" stroke="rgba(50,50,50,1)" stroke-width="2" fill-opacity="1" fill="#ffffed"></path><g id="SvgjsG1026"><text id="SvgjsText1027" font-family="Arial" text-anchor="middle" font-size="13px" width="80px" fill="#323232" font-weight="400" align="middle" lineHeight="125%" anchor="middle" family="Arial" size="13px" weight="400" font-style="" opacity="1" y="25.375" transform="rotate(0)"><tspan id="SvgjsTspan1028" dy="16" x="50"><tspan id="SvgjsTspan1029" style="text-decoration:;">实体类</tspan></tspan></text></g></g><g id="SvgjsG1030" transform="translate(203.41249084472656,322.3999938964844)"><path id="SvgjsPath1031" d="M 0 4Q 0 0 4 0L 96 0Q 100 0 100 4L 100 66Q 100 70 96 70L 4 70Q 0 70 0 66Z" stroke="rgba(50,50,50,1)" stroke-width="2" fill-opacity="1" fill="#ffffed"></path><g id="SvgjsG1032"><text id="SvgjsText1033" font-family="Arial" text-anchor="middle" font-size="13px" width="80px" fill="#323232" font-weight="400" align="middle" lineHeight="125%" anchor="middle" family="Arial" size="13px" weight="400" font-style="" opacity="1" y="25.375" transform="rotate(0)"><tspan id="SvgjsTspan1034" dy="16" x="50"><tspan id="SvgjsTspan1035" style="text-decoration:;">EntityDao</tspan></tspan></text></g></g><g id="SvgjsG1036" transform="translate(335.41249084472656,322.3999938964844)"><path id="SvgjsPath1037" d="M 0 4Q 0 0 4 0L 96 0Q 100 0 100 4L 100 66Q 100 70 96 70L 4 70Q 0 70 0 66Z" stroke="rgba(50,50,50,1)" stroke-width="2" fill-opacity="1" fill="#ffffed"></path><g id="SvgjsG1038"><text id="SvgjsText1039" font-family="Arial" text-anchor="middle" font-size="13px" width="80px" fill="#323232" font-weight="400" align="middle" lineHeight="125%" anchor="middle" family="Arial" size="13px" weight="400" font-style="" opacity="1" y="25.375" transform="rotate(0)"><tspan id="SvgjsTspan1040" dy="16" x="50"><tspan id="SvgjsTspan1041" style="text-decoration:;">BizModel</tspan></tspan></text></g></g><g id="SvgjsG1042" transform="translate(468.41249084472656,210.39999389648438)"><path id="SvgjsPath1043" d="M 0 4Q 0 0 4 0L 96 0Q 100 0 100 4L 100 66Q 100 70 96 70L 4 70Q 0 70 0 66Z" stroke="rgba(50,50,50,1)" stroke-width="2" fill-opacity="1" fill="#ffffed"></path><g id="SvgjsG1044"><text id="SvgjsText1045" font-family="Arial" text-anchor="middle" font-size="13px" width="80px" fill="#323232" font-weight="400" align="middle" lineHeight="125%" anchor="middle" family="Arial" size="13px" weight="400" font-style="" opacity="1" y="25.375" transform="rotate(0)"><tspan id="SvgjsTspan1046" dy="16" x="50"><tspan id="SvgjsTspan1047" style="text-decoration:;">XMeta</tspan></tspan></text></g></g><g id="SvgjsG1048" transform="translate(68.41249084472656,210.39999389648438)"><path id="SvgjsPath1049" d="M 0 4Q 0 0 4 0L 96 0Q 100 0 100 4L 100 66Q 100 70 96 70L 4 70Q 0 70 0 66Z" stroke="rgba(50,50,50,1)" stroke-width="2" fill-opacity="1" fill="#ffffed"></path><g id="SvgjsG1050"><text id="SvgjsText1051" font-family="Arial" text-anchor="middle" font-size="13px" width="80px" fill="#323232" font-weight="400" align="middle" lineHeight="125%" anchor="middle" family="Arial" size="13px" weight="400" font-style="" opacity="1" y="25.375" transform="rotate(0)"><tspan id="SvgjsTspan1052" dy="16" x="50"><tspan id="SvgjsTspan1053" style="text-decoration:;">国际化消息</tspan></tspan></text></g></g><g id="SvgjsG1054" transform="translate(206.41249084472656,210.39999389648438)"><path id="SvgjsPath1055" d="M 0 4Q 0 0 4 0L 96 0Q 100 0 100 4L 100 66Q 100 70 96 70L 4 70Q 0 70 0 66Z" stroke="rgba(50,50,50,1)" stroke-width="2" fill-opacity="1" fill="#ffffed"></path><g id="SvgjsG1056"><text id="SvgjsText1057" font-family="Arial" text-anchor="middle" font-size="13px" width="80px" fill="#323232" font-weight="400" align="middle" lineHeight="125%" anchor="middle" family="Arial" size="13px" weight="400" font-style="" opacity="1" y="25.375" transform="rotate(0)"><tspan id="SvgjsTspan1058" dy="16" x="50"><tspan id="SvgjsTspan1059" style="text-decoration:;">GraphQL定义</tspan></tspan></text></g></g><g id="SvgjsG1060"><path id="SvgjsPath1061" d="M367.0124816894531 86.66666285196939L367.0124816894531 124.33332951863605L367.0124816894531 124.33332951863605L366.0124816894531 161.99999618530273" stroke="#323232" stroke-width="2" fill="none" marker-end="url(#SvgjsMarker1062)"></path><rect id="SvgjsRect1064" width="26" height="16" x="354.01230557454244" y="116.33996318027073" fill="#ffffff"></rect><text id="SvgjsText1065" font-family="Arial" text-anchor="middle" font-size="13px" width="26px" fill="#323232" font-weight="400" align="top" lineHeight="16px" anchor="middle" family="Arial" size="13px" weight="400" font-style="" opacity="1" y="114.71496318027073" transform="rotate(0)"><tspan id="SvgjsTspan1066" dy="16" x="367.01230557454244"><tspan id="SvgjsTspan1067" style="text-decoration:;">生成</tspan></tspan></text></g><g id="SvgjsG1068" transform="translate(335.41249084472656,210.39999389648438)"><path id="SvgjsPath1069" d="M 0 4Q 0 0 4 0L 96 0Q 100 0 100 4L 100 66Q 100 70 96 70L 4 70Q 0 70 0 66Z" stroke="rgba(50,50,50,1)" stroke-width="2" fill-opacity="1" fill="#ffffed"></path><g id="SvgjsG1070"><text id="SvgjsText1071" font-family="Arial" text-anchor="middle" font-size="13px" width="80px" fill="#323232" font-weight="400" align="middle" lineHeight="125%" anchor="middle" family="Arial" size="13px" weight="400" font-style="" opacity="1" y="25.375" transform="rotate(0)"><tspan id="SvgjsTspan1072" dy="16" x="50"><tspan id="SvgjsTspan1073" style="text-decoration:;">前端页面</tspan></tspan></text></g></g><g id="SvgjsG1074" transform="translate(83.41249084472656,530.3999938964844)"><path id="SvgjsPath1075" d="M 0 0L 100 0L 100 70L 0 70Z" stroke="rgba(50,50,50,1)" stroke-width="2" fill-opacity="1" fill="#ffffed"></path><g id="SvgjsG1076"><text id="SvgjsText1077" font-family="Arial" text-anchor="middle" font-size="13px" width="80px" fill="#323232" font-weight="400" align="middle" lineHeight="125%" anchor="middle" family="Arial" size="13px" weight="400" font-style="" opacity="1" y="25.375" transform="rotate(0)"><tspan id="SvgjsTspan1078" dy="16" x="50"><tspan id="SvgjsTspan1079" style="text-decoration:;">工作流</tspan></tspan></text></g></g><g id="SvgjsG1080"><path id="SvgjsPath1081" d="M141.44415870808666 530.3999938964844L141.44415870808666 485.6908984305642L141.44415870808666 485.6908984305642L140.44415870808666 440.981802964644" stroke="#323232" stroke-width="2" fill="none" marker-end="url(#SvgjsMarker1082)"></path><rect id="SvgjsRect1084" width="26" height="16" x="128.44403368640704" y="477.6853088243544" fill="#ffffff"></rect><text id="SvgjsText1085" font-family="Arial" text-anchor="middle" font-size="13px" width="26px" fill="#323232" font-weight="400" align="top" lineHeight="16px" anchor="middle" family="Arial" size="13px" weight="400" font-style="" opacity="1" y="476.0603088243544" transform="rotate(0)"><tspan id="SvgjsTspan1086" dy="16" x="141.44403368640704"><tspan id="SvgjsTspan1087" style="text-decoration:;">增加</tspan></tspan></text></g><g id="SvgjsG1088" transform="translate(222.41249084472656,530.3999938964844)"><path id="SvgjsPath1089" d="M 0 0L 100 0L 100 70L 0 70Z" stroke="rgba(50,50,50,1)" stroke-width="2" fill-opacity="1" fill="#ffffed"></path><g id="SvgjsG1090"><text id="SvgjsText1091" font-family="Arial" text-anchor="middle" font-size="13px" width="80px" fill="#323232" font-weight="400" align="middle" lineHeight="125%" anchor="middle" family="Arial" size="13px" weight="400" font-style="" opacity="1" y="25.375" transform="rotate(0)"><tspan id="SvgjsTspan1092" dy="16" x="50"><tspan id="SvgjsTspan1093" style="text-decoration:;">报表</tspan></tspan></text></g></g><g id="SvgjsG1094"><path id="SvgjsPath1095" d="M265.0124816894531 530.3999938964844L265.0124816894531 486.19998931884766L265.0124816894531 486.19998931884766L264.0124816894531 441.99998474121094" stroke="#323232" stroke-width="2" fill="none" marker-end="url(#SvgjsMarker1096)"></path><rect id="SvgjsRect1098" width="26" height="16" x="252.0123537723269" y="478.1943353812828" fill="#ffffff"></rect><text id="SvgjsText1099" font-family="Arial" text-anchor="middle" font-size="13px" width="26px" fill="#323232" font-weight="400" align="top" lineHeight="16px" anchor="middle" family="Arial" size="13px" weight="400" font-style="" opacity="1" y="476.5693353812828" transform="rotate(0)"><tspan id="SvgjsTspan1100" dy="16" x="265.0123537723269"><tspan id="SvgjsTspan1101" style="text-decoration:;">增加</tspan></tspan></text></g><g id="SvgjsG1102" transform="translate(356.0124816894531,530.3999938964844)"><path id="SvgjsPath1103" d="M 0 0L 100 0L 100 70L 0 70Z" stroke="rgba(50,50,50,1)" stroke-width="2" fill-opacity="1" fill="#ffffed"></path><g id="SvgjsG1104"><text id="SvgjsText1105" font-family="Arial" text-anchor="middle" font-size="13px" width="80px" fill="#323232" font-weight="400" align="middle" lineHeight="125%" anchor="middle" family="Arial" size="13px" weight="400" font-style="" opacity="1" y="25.375" transform="rotate(0)"><tspan id="SvgjsTspan1106" dy="16" x="50"><tspan id="SvgjsTspan1107" style="text-decoration:;">设计器</tspan></tspan></text></g></g><g id="SvgjsG1108" transform="translate(588.4124908447266,322.3999938964844)"><path id="SvgjsPath1109" d="M 0 4Q 0 0 4 0L 96 0Q 100 0 100 4L 100 66Q 100 70 96 70L 4 70Q 0 70 0 66Z" stroke="rgba(50,50,50,1)" stroke-width="2" fill-opacity="1" fill="#ffffed"></path><g id="SvgjsG1110"><text id="SvgjsText1111" font-family="Arial" text-anchor="middle" font-size="13px" width="80px" fill="#323232" font-weight="400" align="middle" lineHeight="125%" anchor="middle" family="Arial" size="13px" weight="400" font-style="" opacity="1" y="25.375" transform="rotate(0)"><tspan id="SvgjsTspan1112" dy="16" x="50"><tspan id="SvgjsTspan1113" style="text-decoration:;">部署脚本</tspan></tspan></text></g></g><g id="SvgjsG1114"><path id="SvgjsPath1115" d="M418.90378603727913 530.3999938964844L418.90378603727913 485.6908984305642L418.90378603727913 485.6908984305642L417.90378603727913 440.981802964644" stroke="#323232" stroke-width="2" fill="none" marker-end="url(#SvgjsMarker1116)"></path><rect id="SvgjsRect1118" width="26" height="16" x="405.90366101559954" y="477.6853088243544" fill="#ffffff"></rect><text id="SvgjsText1119" font-family="Arial" text-anchor="middle" font-size="13px" width="26px" fill="#323232" font-weight="400" align="top" lineHeight="16px" anchor="middle" family="Arial" size="13px" weight="400" font-style="" opacity="1" y="476.0603088243544" transform="rotate(0)"><tspan id="SvgjsTspan1120" dy="16" x="418.90366101559954"><tspan id="SvgjsTspan1121" style="text-decoration:;">调整</tspan></tspan></text></g><g id="SvgjsG1122" transform="translate(785.4124908447266,253.39999389648438)"><path id="SvgjsPath1123" d="M 14.7 0L 69.3 0L 84 35L 69.3 70L 14.7 70L 0 35L 14.7 0Z" stroke="rgba(50,50,50,1)" stroke-width="2" fill-opacity="1" fill="#ffffed"></path><g id="SvgjsG1124"><text id="SvgjsText1125" font-family="Arial" text-anchor="middle" font-size="13px" width="64px" fill="#323232" font-weight="400" align="middle" lineHeight="125%" anchor="middle" family="Arial" size="13px" weight="400" font-style="" opacity="1" y="25.375" transform="rotate(0)"><tspan id="SvgjsTspan1126" dy="16" x="42"><tspan id="SvgjsTspan1127" style="text-decoration:;">Delta</tspan></tspan></text></g></g><g id="SvgjsG1128"><path id="SvgjsPath1129" d="M785.4124908447266 287.99998474121094L745.7124862670898 287.99998474121094L745.7124862670898 287.99998474121094L706.0124816894531 287.99998474121094" stroke="#323232" stroke-width="2" fill="none" marker-end="url(#SvgjsMarker1130)"></path><rect id="SvgjsRect1132" width="26" height="16" x="732.7124862670898" y="279.99998474121094" fill="#ffffff"></rect><text id="SvgjsText1133" font-family="Arial" text-anchor="middle" font-size="13px" width="26px" fill="#323232" font-weight="400" align="top" lineHeight="16px" anchor="middle" family="Arial" size="13px" weight="400" font-style="" opacity="1" y="278.37498474121094" transform="rotate(0)"><tspan id="SvgjsTspan1134" dy="16" x="745.7124862670898"><tspan id="SvgjsTspan1135" style="text-decoration:;">定制</tspan></tspan></text></g><g id="SvgjsG1136" transform="translate(588.4124908447266,530.3999938964844)"><path id="SvgjsPath1137" d="M 14.7 0L 85.3 0L 100 35L 85.3 70L 14.7 70L 0 35L 14.7 0Z" stroke="rgba(50,50,50,1)" stroke-width="2" fill-opacity="1" fill="#ffffed"></path><g id="SvgjsG1138"><text id="SvgjsText1139" font-family="Arial" text-anchor="middle" font-size="13px" width="80px" fill="#323232" font-weight="400" align="middle" lineHeight="125%" anchor="middle" family="Arial" size="13px" weight="400" font-style="" opacity="1" y="25.375" transform="rotate(0)"><tspan id="SvgjsTspan1140" dy="16" x="50"><tspan id="SvgjsTspan1141" style="text-decoration:;">ProCode</tspan></tspan></text></g></g><g id="SvgjsG1142"><path id="SvgjsPath1143" d="M637.0124816894531 530.3999938964844L637.0124816894531 486.19998931884766L637.0124816894531 486.19998931884766L636.0124816894531 441.99998474121094" stroke="#323232" stroke-width="2" fill="none" marker-end="url(#SvgjsMarker1144)"></path><rect id="SvgjsRect1146" width="26" height="16" x="624.0123537723268" y="478.1943353812828" fill="#ffffff"></rect><text id="SvgjsText1147" font-family="Arial" text-anchor="middle" font-size="13px" width="26px" fill="#323232" font-weight="400" align="top" lineHeight="16px" anchor="middle" family="Arial" size="13px" weight="400" font-style="" opacity="1" y="476.5693353812828" transform="rotate(0)"><tspan id="SvgjsTspan1148" dy="16" x="637.0123537723268"><tspan id="SvgjsTspan1149" style="text-decoration:;">细化</tspan></tspan></text></g><g id="SvgjsG1150" transform="translate(230.41249084472656,682.3999938964844)"><path id="SvgjsPath1151" d="M 14.7 0L 69.3 0L 84 35L 69.3 70L 14.7 70L 0 35L 14.7 0Z" stroke="rgba(50,50,50,1)" stroke-width="2" fill-opacity="1" fill="#ffffed"></path><g id="SvgjsG1152"><text id="SvgjsText1153" font-family="Arial" text-anchor="middle" font-size="13px" width="64px" fill="#323232" font-weight="400" align="middle" lineHeight="125%" anchor="middle" family="Arial" size="13px" weight="400" font-style="" opacity="1" y="25.375" transform="rotate(0)"><tspan id="SvgjsTspan1154" dy="16" x="42"><tspan id="SvgjsTspan1155" style="text-decoration:;">Delta</tspan></tspan></text></g></g><g id="SvgjsG1156"><path id="SvgjsPath1157" d="M270.6125183105469 682.3999938964844L270.6125183105469 652.1499938964844L270.6125183105469 652.1499938964844L270.6125183105469 621.8999938964844" stroke="#323232" stroke-width="2" fill="none" marker-end="url(#SvgjsMarker1158)"></path><rect id="SvgjsRect1160" width="26" height="16" x="257.6125183105469" y="644.1499938964844" fill="#ffffff"></rect><text id="SvgjsText1161" font-family="Arial" text-anchor="middle" font-size="13px" width="26px" fill="#323232" font-weight="400" align="top" lineHeight="16px" anchor="middle" family="Arial" size="13px" weight="400" font-style="" opacity="1" y="642.5249938964844" transform="rotate(0)"><tspan id="SvgjsTspan1162" dy="16" x="270.6125183105469"><tspan id="SvgjsTspan1163" style="text-decoration:;">定制</tspan></tspan></text></g><g id="SvgjsG1164"><path id="SvgjsPath1165" d="M588.4124908447266 565.3999938964844L539.7124862670898 565.3999938964844L539.7124862670898 565.3999938964844L491.41249084472656 565.3999938964844" stroke="#323232" stroke-width="2" fill="none" marker-end="url(#SvgjsMarker1166)"></path><rect id="SvgjsRect1168" width="26" height="16" x="526.9124908447266" y="557.3999938964844" fill="#ffffff"></rect><text id="SvgjsText1169" font-family="Arial" text-anchor="middle" font-size="13px" width="26px" fill="#323232" font-weight="400" align="top" lineHeight="16px" anchor="middle" family="Arial" size="13px" weight="400" font-style="" opacity="1" y="555.7749938964844" transform="rotate(0)"><tspan id="SvgjsTspan1170" dy="16" x="539.9124908447266"><tspan id="SvgjsTspan1171" style="text-decoration:;">细化</tspan></tspan></text></g><g id="SvgjsG1172" transform="translate(588.4124908447266,210.39999389648438)"><path id="SvgjsPath1173" d="M 0 4Q 0 0 4 0L 96 0Q 100 0 100 4L 100 66Q 100 70 96 70L 4 70Q 0 70 0 66Z" stroke="rgba(50,50,50,1)" stroke-width="2" fill-opacity="1" fill="#ffffed"></path><g id="SvgjsG1174"><text id="SvgjsText1175" font-family="Arial" text-anchor="middle" font-size="13px" width="80px" fill="#323232" font-weight="400" align="middle" lineHeight="125%" anchor="middle" family="Arial" size="13px" weight="400" font-style="" opacity="1" y="25.375" transform="rotate(0)"><tspan id="SvgjsTspan1176" dy="16" x="50"><tspan id="SvgjsTspan1177" style="text-decoration:;">技术文档</tspan></tspan></text></g></g><g id="SvgjsG1178" transform="translate(468.41249084472656,322.3999938964844)"><path id="SvgjsPath1179" d="M 0 4Q 0 0 4 0L 96 0Q 100 0 100 4L 100 66Q 100 70 96 70L 4 70Q 0 70 0 66Z" stroke="rgba(50,50,50,1)" stroke-width="2" fill-opacity="1" fill="#ffffed"></path><g id="SvgjsG1180"><text id="SvgjsText1181" font-family="Arial" text-anchor="middle" font-size="13px" width="80px" fill="#323232" font-weight="400" align="middle" lineHeight="125%" anchor="middle" family="Arial" size="13px" weight="400" font-style="" opacity="1" y="25.375" transform="rotate(0)"><tspan id="SvgjsTspan1182" dy="16" x="50"><tspan id="SvgjsTspan1183" style="text-decoration:;">测试脚本</tspan></tspan></text></g></g></svg>